<svg width="363" height="372" viewBox="0 0 363 372" fill="none" xmlns="http://www.w3.org/2000/svg">
<path d="M308.266 168.562L283.594 143.296V81.375C283.594 71.7844 275.937 63.9375 266.578 63.9375H249.562C240.204 63.9375 232.547 71.7844 232.547 81.375V91.0179L198.516 56.1778C193.87 51.6789 189.616 46.5 181.5 46.5C173.384 46.5 169.13 51.6789 164.484 56.1778L54.7336 168.562C49.4247 174.23 45.375 178.362 45.375 186C45.375 195.817 52.7257 203.438 62.3906 203.438H79.4062V308.062C79.4062 317.653 87.0633 325.5 96.4219 325.5H130.453C139.851 325.5 147.469 317.693 147.469 308.062V238.312C147.469 228.722 155.126 220.875 164.484 220.875H198.516C207.874 220.875 215.531 228.722 215.531 238.312V308.062C215.531 317.693 214.642 325.5 224.039 325.5H266.578C275.937 325.5 283.594 317.653 283.594 308.062V203.438H300.609C310.274 203.438 317.625 195.817 317.625 186C317.625 178.362 313.575 174.23 308.266 168.562Z" stroke="#D8B64D" stroke-opacity="0.57" stroke-width="10" stroke-linejoin="round"/>
</svg>
